# xmcd CD database file generated by Grip 2.95
# 
# Track frame offsets:
#       150
#       22604
#       42655
#       63123
# 
# Disc length: 1162 seconds
# 
# Revision: 3
# Processed by: cddbd v1.4PL0 Copyright (c) Steve Scherf et al.
# Submitted via: Grip 2.95
# 
DISCID=26048804
DTITLE=Rusty Martin - Live
DYEAR=1900
DGENRE=
TTITLE0=Stagger Lee
TTITLE1=Honky Tonk Women
TTITLE2=Rollin' and Tumblin'
TTITLE3=I Can't Be Satisfied
EXTD=
EXTT0=
EXTT1=
EXTT2=
EXTT3=
PLAYORDER=
